# Export of Game
# from Aaro4130 OBJ Exporter v2.0
mtllib Track.mtl
g Car (1)
v 25.89 1.13 12.69
v 24.39 1.13 12.69
v 25.89 2.103931 12.46315
v 24.39 2.103931 12.46315
v 24.39 1.13 12.69
v 24.39 0.4494631 9.768208
v 24.39 2.103931 12.46315
v 24.39 1.423394 9.541362
v 24.39 0.4494631 9.768208
v 25.89 0.4494631 9.768208
v 24.39 1.423394 9.541362
v 25.89 1.423394 9.541362
v 25.89 0.4494631 9.768208
v 25.89 1.13 12.69
v 25.89 1.423394 9.541362
v 25.89 2.103931 12.46315
v 25.89 2.103931 12.46315
v 24.39 2.103931 12.46315
v 25.89 1.423394 9.541362
v 24.39 1.423394 9.541362
v 25.89 0.4494631 9.768208
v 24.39 0.4494631 9.768208
v 25.89 1.13 12.69
v 24.39 1.13 12.69
vn 0 0.1309694 0.5622991
vn 0 0.1309694 0.5622991
vn 0 0.1309694 0.5622991
vn 0 0.1309694 0.5622991
vn -0.5773503 0 0
vn -0.5773503 0 0
vn -0.5773503 0 0
vn -0.5773503 0 0
vn 0 -0.1309694 -0.5622991
vn 0 -0.1309694 -0.5622991
vn 0 -0.1309694 -0.5622991
vn 0 -0.1309694 -0.5622991
vn 0.5773503 0 0
vn 0.5773503 0 0
vn 0.5773503 0 0
vn 0.5773503 0 0
vn 0 0.5622991 -0.1309694
vn 0 0.5622991 -0.1309694
vn 0 0.5622991 -0.1309694
vn 0 0.5622991 -0.1309694
vn 0 -0.5622991 0.1309694
vn 0 -0.5622991 0.1309694
vn 0 -0.5622991 0.1309694
vn 0 -0.5622991 0.1309694
vt 0 0
vt -1.5 0
vt 0 1
vt -1.5 1
vt 0 0
vt -3 0
vt 0 1
vt -3 1
vt 1.5 0
vt 0 0
vt 1.5 1
vt 0 1
vt 3 0
vt 0 0
vt 3 1
vt 0 1
vt 0 0
vt 1.5 0
vt 0 -3
vt 1.5 -3
vt 0 -3
vt -1.5 -3
vt 0 0
vt -1.5 0
usemtl Grey box car
f 3/3/3 2/2/2 1/1/1
f 3/3/3 4/4/4 2/2/2
f 7/7/7 6/6/6 5/5/5
f 7/7/7 8/8/8 6/6/6
f 11/11/11 10/10/10 9/9/9
f 11/11/11 12/12/12 10/10/10
f 15/15/15 14/14/14 13/13/13
f 15/15/15 16/16/16 14/14/14
f 19/19/19 18/18/18 17/17/17
f 19/19/19 20/20/20 18/18/18
f 23/23/23 22/22/22 21/21/21
f 23/23/23 24/24/24 22/22/22
g Track (1)
v 14.87068 9.024982 95.32942
v 20.89256 5.772446 93.66785
v 14.9401 9.024982 96.57749
v 21.7902 5.772446 94.53776
v 20.89256 5.772446 93.66785
v 23.59354 0 88.09509
v 21.7902 5.772446 94.53776
v 24.75839 0 88.54855
v 23.59354 0 88.09509
v 23.63 8.433674 49.30946
v 24.75839 0 88.54855
v 24.88 8.433674 49.30946
v 23.63 8.433674 49.30946
v 23.78565 0 8.98361
v 24.88 8.433674 49.30946
v 24.9236 0 8.466328
v 23.78565 0 8.98361
v 22.33964 0 4.574869
v 24.9236 0 8.466328
v 23.01371 0 3.52219
v 22.33964 0 4.574869
v 16.87903 -1.363368 2.150976
v 23.01371 0 3.52219
v 16.97499 -1.363368 0.9046612
v 14.9401 9.024982 96.57749
v 21.7902 5.772446 94.53776
v 15.00953 9.024982 97.82556
v 22.68784 5.772446 95.40768
v 21.7902 5.772446 94.53776
v 24.75839 0 88.54855
v 22.68784 5.772446 95.40768
v 25.92324 0 89.00199
v 24.75839 0 88.54855
v 24.88 8.433674 49.30946
v 25.92324 0 89.00199
v 26.13 8.433674 49.30946
v 24.88 8.433674 49.30946
v 24.9236 0 8.466328
v 26.13 8.433674 49.30946
v 26.06154 0 7.949045
v 26.06154 0 7.949045
v 23.68778 0 2.469513
v 23.01371 0 3.52219
v 16.97499 -1.363368 0.9046612
v 23.68778 0 2.469513
v 17.07094 -1.363368 -0.34165
v 15.00953 9.024982 97.82556
v 22.68784 5.772446 95.40768
v 15.07895 9.024982 99.07363
v 23.58548 5.772446 96.27758
v 22.68784 5.772446 95.40768
v 25.92324 0 89.00199
v 23.58548 5.772446 96.27758
v 27.0881 0 89.45544
v 25.92324 0 89.00199
v 26.13 8.433674 49.30946
v 27.0881 0 89.45544
v 27.38 8.433674 49.30946
v 26.13 8.433674 49.30946
v 26.06154 0 7.949045
v 27.38 8.433674 49.30946
v 27.19949 0 7.431765
v 27.19949 0 7.431765
v 24.36185 0 1.416834
v 23.68778 0 2.469513
v 17.07094 -1.363368 -0.34165
v 24.36185 0 1.416834
v 17.16689 -1.363368 -1.587961
v 15.07895 9.024982 99.07363
v 23.58548 5.772446 96.27758
v 15.14838 9.024982 100.3217
v 24.48312 5.772446 97.14748
v 23.58548 5.772446 96.27758
v 27.0881 0 89.45544
v 24.48312 5.772446 97.14748
v 28.25295 0 89.90889
v 27.0881 0 89.45544
v 27.38 8.433674 49.30946
v 28.25295 0 89.90889
v 28.63 8.433674 49.30946
v 27.38 8.433674 49.30946
v 27.19949 0 7.431765
v 28.63 8.433674 49.30946
v 28.33743 0 6.914482
v 28.33743 0 6.914482
v 25.03592 0 0.3641548
v 24.36185 0 1.416834
v 17.16689 -1.363368 -1.587961
v 25.03592 0 0.3641548
v 17.26285 -1.363368 -2.834261
vn 0.2710545 0.5095443 -0.01507798
vn 0.2315032 0.5182337 -0.1057045
vn 0.2315032 0.5182337 -0.1057045
vn 0.185905 0.5118328 -0.1918328
vn 0.2814377 0.4120525 -0.2904116
vn 0.2088872 0.4286152 -0.3255586
vn 0.2088872 0.4286152 -0.3255586
vn 0.1371979 0.4362261 -0.352444
vn -0.04757507 0.5622575 0.1222144
vn -0.02288098 0.5638809 0.1218532
vn -0.02288098 0.5638809 0.1218532
vn 0 0.5644598 0.1213196
vn 0 0.5651236 -0.1181889
vn -0.02543424 0.5647129 -0.1174128
vn -0.02543424 0.5647129 -0.1174128
vn -0.05287496 0.5630345 -0.1163171
vn 0 0.5773503 0
vn 0 0.5773503 0
vn 0 0.5773503 0
vn 0 0.5773503 0
vn -0.1093683 0.5625543 -0.0700324
vn -0.1166328 0.5640958 -0.03906466
vn -0.1166328 0.5640958 -0.03906466
vn -0.123216 0.5639691 -0.00948613
vn 0.2442626 0.5229574 -0.01358781
vn 0.2081704 0.5300603 -0.09505002
vn 0.2081704 0.5300603 -0.09505002
vn 0.1677337 0.5246356 -0.1730788
vn 0.2698845 0.4277171 -0.2784849
vn 0.2002109 0.4425886 -0.3120325
vn 0.2002109 0.4425886 -0.3120325
vn 0.131641 0.4490497 -0.3381691
vn -0.04701569 0.562615 0.1207774
vn -0.02262135 0.5641884 0.1204705
vn -0.02262135 0.5641884 0.1204705
vn 0 0.5647431 0.1199938
vn 0 0.5654219 -0.1167536
vn -0.02511339 0.5650333 -0.1159316
vn -0.02511339 0.5650333 -0.1159316
vn -0.05218397 0.5634109 -0.114797
vn 0 0.5773502 0
vn 0 0.5773503 0
vn -0.09985474 0.5650433 -0.06394076
vn -0.1066822 0.5662822 -0.03573225
vn -0.1066822 0.5662822 -0.03573225
vn -0.112953 0.5661266 -0.008696551
vn 0.2218443 0.5328847 -0.01234039
vn 0.188775 0.5387651 -0.08619469
vn 0.188775 0.5387651 -0.08619469
vn 0.1525073 0.5341437 -0.1573701
vn 0.2588787 0.441537 -0.2671333
vn 0.1919922 0.454901 -0.299228
vn 0.1919922 0.454901 -0.299228
vn 0.1263819 0.4603864 -0.3246618
vn -0.04646858 0.5629601 0.1193729
vn -0.02236723 0.5644855 0.1191182
vn -0.02236723 0.5644855 0.1191182
vn 0 0.5650172 0.1186961
vn 0 0.5657095 -0.1153521
vn -0.02480025 0.5653416 -0.1144865
vn -0.02480025 0.5653416 -0.1144865
vn -0.05151014 0.5637727 -0.1133151
vn 0 0.5773503 0
vn 0 0.5773503 0
vn -0.09183545 0.566958 -0.05880568
vn -0.09826985 0.5679727 -0.03291446
vn -0.09826985 0.5679727 -0.03291446
vn -0.1042414 0.5678051 -0.008025507
vn 0.2029156 0.5403991 -0.0112877
vn 0.1724777 0.5453281 -0.07875321
vn 0.1724777 0.5453281 -0.07875321
vn 0.1396337 0.541364 -0.1440861
vn 0.2484473 0.4537423 -0.2563693
vn 0.1842368 0.4657689 -0.28714
vn 0.1842368 0.4657689 -0.28714
vn 0.1214191 0.4704282 -0.3119103
vn -0.04593451 0.5632933 0.118
vn -0.022119 0.5647728 0.1177952
vn -0.022119 0.5647728 0.1177952
vn 0 0.5652827 0.1174256
vn 0 0.5659869 -0.1139831
vn -0.02449485 0.5656387 -0.1130762
vn -0.02449485 0.5656387 -0.1130762
vn -0.05085348 0.5641209 -0.1118702
vn 0 0.5773503 0
vn 0 0.5773502 0
vn -0.08498951 0.5684614 -0.05442186
vn -0.09106956 0.569306 -0.0305029
vn -0.09106956 0.569306 -0.0305029
vn -0.09675907 0.5691358 -0.00744951
vt -11.97173 -65.57774
vt -5.127745 -63.9156
vt -11.91044 -66.82623
vt -4.335256 -64.79621
vt -5.516212 -56.79498
vt -0.03011056 -50.34713
vt -4.774969 -57.80148
vt 0.9317878 -51.06951
vt -0.0363339 -56.94408
vt 0.7110692 -17.25914
vt 1.124372 -57.40805
vt 1.956618 -17.28144
vt 0 -20.79339
vt 0.1556525 20.40492
vt 1.25 -20.79339
vt 1.293598 20.91125
vt 0.1556525 20.84639
vt -1.290358 25.25513
vt 1.293598 21.36367
vt -0.6162901 26.30781
vt -1.266642 25.03877
vt -6.887075 27.4807
vt -0.6049633 26.09929
vt -6.792888 28.72003
vt -11.6927 -66.8349
vt -4.109787 -64.7946
vt -11.62979 -68.08331
vt -3.29649 -65.67322
vt -4.63633 -58.56381
vt 0.9542959 -51.72664
vt -3.877182 -59.55689
vt 1.93943 -52.42369
vt 1.124471 -57.43902
vt 1.947982 -17.31211
vt 2.285279 -57.90273
vt 3.19364 -17.33389
vt 1.25 -20.78249
vt 1.293598 20.92229
vt 2.5 -20.78249
vt 2.431542 21.42888
vt 2.431542 21.88095
vt 0.05777884 27.36049
vt -0.6068864 26.1341
vt -6.790727 28.76783
vt 0.05689721 27.19329
vt -6.696234 30.00832
vt -11.42697 -68.0873
vt -3.088341 -65.66886
vt -11.36288 -69.33566
vt -2.259643 -66.54594
vt -3.732392 -60.21952
vt 1.978286 -52.99389
vt -2.958034 -61.20078
vt 2.983157 -53.66847
vt 2.285472 -57.93239
vt 3.18531 -17.36323
vt 3.446378 -58.39585
vt 4.431073 -17.38449
vt 2.5 -20.77172
vt 2.431542 21.43978
vt 3.75 -20.77172
vt 3.569488 21.94663
vt 3.569488 22.39824
vt 0.7318487 28.41317
vt 0.05703545 27.21914
vt -6.692664 30.04499
vt 0.7224327 28.27732
vt -6.597946 31.28639
vt -11.17782 -69.33681
vt -2.07085 -66.54023
vt -11.11283 -70.58513
vt -1.230498 -67.41614
vt -2.811375 -61.7761
vt 3.033171 -54.16215
vt -2.024035 -62.74697
vt 4.05489 -54.81686
vt 3.446658 -58.42426
vt 4.423053 -17.41258
vt 4.607658 -58.88749
vt 5.668918 -17.43334
vt 3.75 -20.76108
vt 3.569488 21.9574
vt 5 -20.76108
vt 4.707433 22.4645
vt 4.707433 22.91552
vt 1.405917 29.46585
vt 0.723804 28.29686
vt -6.593653 31.31509
vt 1.390463 29.35424
vt -6.498755 32.55718
usemtl Grey box track
f 27/27/27 26/26/26 25/25/25
f 27/27/27 28/28/28 26/26/26
f 31/31/31 30/30/30 29/29/29
f 31/31/31 32/32/32 30/30/30
f 35/35/35 34/34/34 33/33/33
f 35/35/35 36/36/36 34/34/34
f 39/39/39 38/38/38 37/37/37
f 39/39/39 40/40/40 38/38/38
f 43/43/43 42/42/42 41/41/41
f 43/43/43 44/44/44 42/42/42
f 47/47/47 46/46/46 45/45/45
f 47/47/47 48/48/48 46/46/46
f 51/51/51 50/50/50 49/49/49
f 51/51/51 52/52/52 50/50/50
f 55/55/55 54/54/54 53/53/53
f 55/55/55 56/56/56 54/54/54
f 59/59/59 58/58/58 57/57/57
f 59/59/59 60/60/60 58/58/58
f 63/63/63 62/62/62 61/61/61
f 63/63/63 64/64/64 62/62/62
f 65/65/65 44/44/44 43/43/43
f 65/65/65 66/66/66 44/44/44
f 69/69/69 68/68/68 67/67/67
f 69/69/69 70/70/70 68/68/68
f 73/73/73 72/72/72 71/71/71
f 73/73/73 74/74/74 72/72/72
f 77/77/77 76/76/76 75/75/75
f 77/77/77 78/78/78 76/76/76
f 81/81/81 80/80/80 79/79/79
f 81/81/81 82/82/82 80/80/80
f 85/85/85 84/84/84 83/83/83
f 85/85/85 86/86/86 84/84/84
f 87/87/87 66/66/66 65/65/65
f 87/87/87 88/88/88 66/66/66
f 91/91/91 90/90/90 89/89/89
f 91/91/91 92/92/92 90/90/90
f 95/95/95 94/94/94 93/93/93
f 95/95/95 96/96/96 94/94/94
f 99/99/99 98/98/98 97/97/97
f 99/99/99 100/100/100 98/98/98
f 103/103/103 102/102/102 101/101/101
f 103/103/103 104/104/104 102/102/102
f 107/107/107 106/106/106 105/105/105
f 107/107/107 108/108/108 106/106/106
f 109/109/109 88/88/88 87/87/87
f 109/109/109 110/110/110 88/88/88
f 113/113/113 112/112/112 111/111/111
f 113/113/113 114/114/114 112/112/112
g Track
v 16.86488 -1.363368 2.152167
v 11.19729 0 3.819175
v 16.9726 -1.363368 0.9068162
v 10.29965 0 2.949267
v 11.19729 0 3.819175
v 8.496316 0 9.391932
v 10.29965 0 2.949267
v 7.331462 0 8.938484
v 8.496316 0 9.391932
v -23.16427 -5.367996 48.30508
v 7.331462 0 8.938484
v -24.41429 -5.367996 48.30508
v -23.16427 -5.367996 48.30508
v 1.270128 0 87.84213
v -24.41429 -5.367996 48.30508
v 0.351697 0 88.69006
v 1.270128 0 87.84213
v 9.75021 5.772446 92.91216
v 0.351697 0 88.69006
v 9.076142 5.772446 93.96485
v 9.75021 5.772446 92.91216
v 15.00805 9.024982 95.21798
v 9.076142 5.772446 93.96485
v 15.08027 9.024982 96.46587
v 16.9726 -1.363368 0.9068162
v 10.29965 0 2.949267
v 17.08032 -1.363368 -0.3385333
v 9.402012 0 2.079357
v 9.402012 0 2.079357
v 6.166608 0 8.485035
v 7.331462 0 8.938484
v -24.41429 -5.367996 48.30508
v 6.166608 0 8.485035
v -25.66429 -5.367996 48.30508
v -24.41429 -5.367996 48.30508
v 0.351697 0 88.69006
v -25.66429 -5.367996 48.30508
v -0.5667343 0 89.53799
v 0.351697 0 88.69006
v 9.076142 5.772446 93.96485
v -0.5667343 0 89.53799
v 8.402073 5.772446 95.01752
v 9.076142 5.772446 93.96485
v 15.08027 9.024982 96.46587
v 8.402073 5.772446 95.01752
v 15.15249 9.024982 97.7138
v 17.08032 -1.363368 -0.3385333
v 9.402012 0 2.079357
v 17.18805 -1.363368 -1.583883
v 8.504371 0 1.209449
v 8.504371 0 1.209449
v 5.001754 0 8.031588
v 6.166608 0 8.485035
v -25.66429 -5.367996 48.30508
v 5.001754 0 8.031588
v -26.91429 -5.367996 48.30508
v -25.66429 -5.367996 48.30508
v -0.5667343 0 89.53799
v -26.91429 -5.367996 48.30508
v -1.485168 0 90.38591
v -0.5667343 0 89.53799
v 8.402073 5.772446 95.01752
v -1.485168 0 90.38591
v 7.728004 5.772446 96.0702
v 8.402073 5.772446 95.01752
v 15.15249 9.024982 97.7138
v 7.728004 5.772446 96.0702
v 15.22471 9.024982 98.96171
v 17.18805 -1.363368 -1.583883
v 8.504371 0 1.209449
v 17.29577 -1.363368 -2.829233
v 7.60673 0 0.3395404
v 7.60673 0 0.3395404
v 3.8369 0 7.578139
v 5.001754 0 8.031588
v -26.91429 -5.367996 48.30508
v 3.8369 0 7.578139
v -28.1643 -5.367996 48.30508
v -26.91429 -5.367996 48.30508
v -1.485168 0 90.38591
v -28.1643 -5.367996 48.30508
v -2.403601 0 91.23383
v -1.485168 0 90.38591
v 7.728004 5.772446 96.0702
v -2.403601 0 91.23383
v 7.053935 5.772446 97.12287
v 7.728004 5.772446 96.0702
v 15.22471 9.024982 98.96171
v 7.053935 5.772446 97.12287
v 15.29693 9.024982 100.2096
vn 0.1383283 0.5604065 0.01196555
vn 0.1122002 0.564791 -0.04189978
vn 0.1122002 0.564791 -0.04189978
vn 0.08749502 0.5634951 -0.09028443
vn 0 0.5773503 0
vn 0 0.5773503 0
vn 0 0.5773503 0
vn 0 0.5773503 0
vn -0.02339856 0.5737359 0.06010822
vn -0.01281193 0.5731612 0.06823089
vn -0.01281193 0.5731612 0.06823089
vn 0 0.5720564 0.07800513
vn 0 0.5721013 -0.07767493
vn -0.02427941 0.5734881 -0.06209062
vn -0.02427941 0.5734881 -0.06209062
vn -0.04493944 0.5735368 -0.04867588
vn -0.2037227 0.4930913 -0.220661
vn -0.2226481 0.4989579 -0.1865533
vn -0.2226481 0.4989579 -0.1865533
vn -0.2396198 0.5023676 -0.1534356
vn -0.2418906 0.5008308 -0.1548897
vn -0.2642837 0.5086328 -0.06913856
vn -0.2642837 0.5086328 -0.06913856
vn -0.2800991 0.5045938 0.01620985
vn 0.1185659 0.5649515 0.010256
vn 0.0967049 0.5680469 -0.03611322
vn 0.0967049 0.5680469 -0.03611322
vn 0.07597747 0.566934 -0.07839942
vn 0 0.5773503 0
vn 0 0.5773503 0
vn -0.02318122 0.5738029 0.05954964
vn -0.01268188 0.5732462 0.06753785
vn -0.01268188 0.5732462 0.06753785
vn 0 0.5721747 0.0771328
vn 0 0.5723166 -0.07607267
vn -0.0238159 0.5736346 -0.06090567
vn -0.0238159 0.5736346 -0.06090567
vn -0.04414423 0.5736709 -0.04781499
vn -0.1988611 0.4973848 -0.2153971
vn -0.2174056 0.5028765 -0.1821631
vn -0.2174056 0.5028765 -0.1821631
vn -0.2340994 0.5060236 -0.1499033
vn -0.2201446 0.5147794 -0.1409674
vn -0.2402266 0.5212246 -0.06284489
vn -0.2402266 0.5212246 -0.06284489
vn -0.2553064 0.5176231 0.0147745
vn 0.10366 0.5678975 0.008966794
vn 0.08492197 0.5701893 -0.03171303
vn 0.08492197 0.5701893 -0.03171303
vn 0.06710035 0.5692423 -0.06923954
vn 0 0.5773503 0
vn 0 0.5773503 0
vn -0.02296771 0.5738681 0.05900141
vn -0.01255434 0.5733286 0.0668587
vn -0.01255434 0.5733286 0.0668587
vn 0 0.572289 0.07627958
vn 0 0.5725189 -0.07453463
vn -0.02336982 0.5737729 -0.05976472
vn -0.02336982 0.5737729 -0.05976472
vn -0.04337671 0.5737981 -0.04698374
vn -0.1941889 0.5013805 -0.2103369
vn -0.2123683 0.5065268 -0.1779426
vn -0.2123683 0.5065268 -0.1779426
vn -0.2287925 0.5094345 -0.1465052
vn -0.2015873 0.5253885 -0.1290846
vn -0.2197927 0.5307714 -0.05749945
vn -0.2197927 0.5307714 -0.05749945
vn -0.2341215 0.5275764 0.01354923
vn 0.09203908 0.5699112 0.007961412
vn 0.07567274 0.5716715 -0.02825908
vn 0.07567274 0.5716715 -0.02825908
vn 0.0600592 0.5708638 -0.06197392
vn 0 0.5773503 0
vn 0 0.5773502 0
vn -0.02275819 0.5739316 0.05846304
vn -0.01242932 0.5734085 0.06619299
vn -0.01242932 0.5734085 0.06619299
vn 0 0.5723997 0.07544488
vn 0 0.5727093 -0.07305706
vn -0.02293993 0.5739036 -0.05866555
vn -0.02293993 0.5739036 -0.05866555
vn -0.04263531 0.5739189 -0.04618068
vn -0.1896977 0.5051032 -0.2054722
vn -0.2075265 0.5099313 -0.1738855
vn -0.2075265 0.5099313 -0.1738855
vn -0.2236889 0.5126205 -0.1432369
vn -0.1856563 0.5336027 -0.1188831
vn -0.2023094 0.5381479 -0.05292571
vn -0.2023094 0.5381479 -0.05292571
vn -0.2159047 0.5353152 0.01249465
vt -8.486831 3.311521
vt -2.657675 4.978887
vt -8.591415 2.065903
vt -1.78619 4.113624
vt -2.737441 4.993555
vt -0.03646374 10.56631
vt -1.8398 4.123647
vt 1.12839 10.11286
vt -0.03643345 10.50905
vt 31.8166 49.63482
vt 1.127453 10.05312
vt 33.06557 49.62951
vt 31.62412 48.30743
vt 7.189724 88.20723
vt 32.87414 48.30743
vt 8.108155 89.04745
vt 6.644925 83.30776
vt -3.396775 88.79433
vt 7.493762 84.22536
vt -2.773785 89.86547
vt -3.672427 91.88145
vt -9.821539 94.275
vt -3.065447 92.97419
vt -9.886569 95.46873
vt -8.611277 2.073511
vt -1.800574 4.116284
vt -8.716703 0.827965
vt -0.9220721 3.249786
vt -0.9421597 3.253737
vt 2.293244 9.659415
vt 1.127471 10.05423
vt 33.06403 49.63192
vt 2.291375 9.59835
vt 34.31302 49.62671
vt 32.87414 48.34077
vt 8.108155 89.08096
vt 34.12415 48.34077
vt 9.026587 89.92149
vt 7.528718 84.4992
vt -2.715218 90.18446
vt 8.381515 85.41311
vt -2.08932 91.25449
vt -2.836387 93.4965
vt -9.6358 96.07558
vt -2.216613 94.58202
vt -9.702201 97.2788
vt -8.725167 0.8325356
vt -0.9268457 3.250717
vt -8.831141 -0.4129641
vt -0.04379486 2.383417
vt -0.04451847 2.383829
vt 3.458098 9.205968
vt 2.29141 9.599472
vt 34.31152 49.62909
vt 3.455332 9.143639
vt 35.56052 49.62399
vt 34.12415 48.37241
vt 9.026587 89.95327
vt 35.37415 48.37241
vt 9.94502 90.7941
vt 8.417307 85.66596
vt -2.030931 91.54986
vt 9.273747 86.57645
vt -1.402359 92.61888
vt -2.013906 94.96642
vt -9.481475 97.73273
vt -1.384572 96.04644
vt -9.548902 98.94326
vt -8.833917 -0.4100924
vt -0.04394904 2.383505
vt -8.940262 -1.655561
vt 0.8422104 1.515653
vt 0.8531227 1.513921
vt 4.622952 8.75252
vt 3.455383 9.144774
vt 35.55906 49.62635
vt 4.619322 8.688983
vt 36.80808 49.62133
vt 35.37415 48.40247
vt 9.94502 90.8243
vt 36.62415 48.40247
vt 10.86345 91.66541
vt 9.31009 86.81007
vt -1.34438 92.89259
vt 10.16989 87.7174
vt -0.7133469 93.96069
vt -1.205666 96.33281
vt -9.354861 99.28764
vt -0.5690308 97.40854
vt -9.423069 100.5039
usemtl Grey box track
f 117/117/117 116/116/116 115/115/115
f 117/117/117 118/118/118 116/116/116
f 121/121/121 120/120/120 119/119/119
f 121/121/121 122/122/122 120/120/120
f 125/125/125 124/124/124 123/123/123
f 125/125/125 126/126/126 124/124/124
f 129/129/129 128/128/128 127/127/127
f 129/129/129 130/130/130 128/128/128
f 133/133/133 132/132/132 131/131/131
f 133/133/133 134/134/134 132/132/132
f 137/137/137 136/136/136 135/135/135
f 137/137/137 138/138/138 136/136/136
f 141/141/141 140/140/140 139/139/139
f 141/141/141 142/142/142 140/140/140
f 143/143/143 122/122/122 121/121/121
f 143/143/143 144/144/144 122/122/122
f 147/147/147 146/146/146 145/145/145
f 147/147/147 148/148/148 146/146/146
f 151/151/151 150/150/150 149/149/149
f 151/151/151 152/152/152 150/150/150
f 155/155/155 154/154/154 153/153/153
f 155/155/155 156/156/156 154/154/154
f 159/159/159 158/158/158 157/157/157
f 159/159/159 160/160/160 158/158/158
f 163/163/163 162/162/162 161/161/161
f 163/163/163 164/164/164 162/162/162
f 165/165/165 144/144/144 143/143/143
f 165/165/165 166/166/166 144/144/144
f 169/169/169 168/168/168 167/167/167
f 169/169/169 170/170/170 168/168/168
f 173/173/173 172/172/172 171/171/171
f 173/173/173 174/174/174 172/172/172
f 177/177/177 176/176/176 175/175/175
f 177/177/177 178/178/178 176/176/176
f 181/181/181 180/180/180 179/179/179
f 181/181/181 182/182/182 180/180/180
f 185/185/185 184/184/184 183/183/183
f 185/185/185 186/186/186 184/184/184
f 187/187/187 166/166/166 165/165/165
f 187/187/187 188/188/188 166/166/166
f 191/191/191 190/190/190 189/189/189
f 191/191/191 192/192/192 190/190/190
f 195/195/195 194/194/194 193/193/193
f 195/195/195 196/196/196 194/194/194
f 199/199/199 198/198/198 197/197/197
f 199/199/199 200/200/200 198/198/198
f 203/203/203 202/202/202 201/201/201
f 203/203/203 204/204/204 202/202/202
g Car
v 27.95 1.13 12.69
v 26.45 1.13 12.69
v 27.95 2.103931 12.46315
v 26.45 2.103931 12.46315
v 26.45 1.13 12.69
v 26.45 0.4494631 9.768208
v 26.45 2.103931 12.46315
v 26.45 1.423394 9.541362
v 26.45 0.4494631 9.768208
v 27.95 0.4494631 9.768208
v 26.45 1.423394 9.541362
v 27.95 1.423394 9.541362
v 27.95 0.4494631 9.768208
v 27.95 1.13 12.69
v 27.95 1.423394 9.541362
v 27.95 2.103931 12.46315
v 27.95 2.103931 12.46315
v 26.45 2.103931 12.46315
v 27.95 1.423394 9.541362
v 26.45 1.423394 9.541362
v 27.95 0.4494631 9.768208
v 26.45 0.4494631 9.768208
v 27.95 1.13 12.69
v 26.45 1.13 12.69
vn 0 0.1309694 0.5622991
vn 0 0.1309694 0.5622991
vn 0 0.1309694 0.5622991
vn 0 0.1309694 0.5622991
vn -0.5773503 0 0
vn -0.5773503 0 0
vn -0.5773503 0 0
vn -0.5773503 0 0
vn 0 -0.1309694 -0.5622991
vn 0 -0.1309694 -0.5622991
vn 0 -0.1309694 -0.5622991
vn 0 -0.1309694 -0.5622991
vn 0.5773503 0 0
vn 0.5773503 0 0
vn 0.5773503 0 0
vn 0.5773503 0 0
vn 0 0.5622991 -0.1309694
vn 0 0.5622991 -0.1309694
vn 0 0.5622991 -0.1309694
vn 0 0.5622991 -0.1309694
vn 0 -0.5622991 0.1309694
vn 0 -0.5622991 0.1309694
vn 0 -0.5622991 0.1309694
vn 0 -0.5622991 0.1309694
vt 0 0
vt -1.5 0
vt 0 1
vt -1.5 1
vt 0 0
vt -3 0
vt 0 1
vt -3 1
vt 1.5 0
vt 0 0
vt 1.5 1
vt 0 1
vt 3 0
vt 0 0
vt 3 1
vt 0 1
vt 0 0
vt 1.5 0
vt 0 -3
vt 1.5 -3
vt 0 -3
vt -1.5 -3
vt 0 0
vt -1.5 0
usemtl Grey box car
f 207/207/207 206/206/206 205/205/205
f 207/207/207 208/208/208 206/206/206
f 211/211/211 210/210/210 209/209/209
f 211/211/211 212/212/212 210/210/210
f 215/215/215 214/214/214 213/213/213
f 215/215/215 216/216/216 214/214/214
f 219/219/219 218/218/218 217/217/217
f 219/219/219 220/220/220 218/218/218
f 223/223/223 222/222/222 221/221/221
f 223/223/223 224/224/224 222/222/222
f 227/227/227 226/226/226 225/225/225
f 227/227/227 228/228/228 226/226/226
